<svg xmlns="http://www.w3.org/2000/svg" width="222" height="71" viewBox="0 0 222 71" fill="none"><g style="mix-blend-mode:color-dodge"><g style="mix-blend-mode:color-dodge"><path d="M201.118 0.863869H90.7101L101.317 11.471H211.732L201.118 0.863869ZM92.7826 1.72434H200.766L209.656 10.6139H101.672L92.7826 1.72434V1.72434Z" fill="white"></path></g><path d="M211.732 11.471H101.317L90.7101 0.863869H201.118L211.732 11.471Z" fill="#5ECAB6"></path><mask id="path-3-inside-1_111_5258" fill="white"><path d="M221.545 20.0626L216.637 15.1541C216.479 14.9933 216.258 14.9029 216.031 14.9029H100.42C100.323 14.9029 100.259 14.8963 100.196 14.8829C100.175 14.8829 100.155 14.8728 100.135 14.8695C100.085 14.8594 100.021 14.8427 99.9177 14.7992C99.8808 14.7858 99.8474 14.769 99.767 14.7188L99.7603 14.7288C99.7302 14.702 99.7 14.6786 99.6665 14.6552C99.6096 14.6184 99.5594 14.5681 99.5125 14.5212L85.2424 0.251117C85.0817 0.090402 84.8641 0 84.6331 0H20.6786C20.4543 0 20.2367 0.090402 20.0759 0.251117L0.251117 20.0626C0.090402 20.2233 0 20.4409 0 20.6686V49.8015C0 50.0292 0.090402 50.2468 0.251117 50.4075L20.0759 70.219C20.2367 70.3797 20.4543 70.4701 20.6786 70.4701H85.2792C85.5069 70.4701 85.7246 70.3797 85.8853 70.219L93.5159 62.5884H128.28L135.911 70.219C136.072 70.3797 136.289 70.4701 136.517 70.4701H201.114C201.342 70.4701 201.563 70.3797 201.724 70.219L221.545 50.4075C221.706 50.2468 221.796 50.0292 221.796 49.8015V20.6686C221.796 20.4409 221.706 20.2233 221.545 20.0626Z"></path></mask><path d="M221.545 20.0626L216.637 15.1541C216.479 14.9933 216.258 14.9029 216.031 14.9029H100.42C100.323 14.9029 100.259 14.8963 100.196 14.8829C100.175 14.8829 100.155 14.8728 100.135 14.8695C100.085 14.8594 100.021 14.8427 99.9177 14.7992C99.8808 14.7858 99.8474 14.769 99.767 14.7188L99.7603 14.7288C99.7302 14.702 99.7 14.6786 99.6665 14.6552C99.6096 14.6184 99.5594 14.5681 99.5125 14.5212L85.2424 0.251117C85.0817 0.090402 84.8641 0 84.6331 0H20.6786C20.4543 0 20.2367 0.090402 20.0759 0.251117L0.251117 20.0626C0.090402 20.2233 0 20.4409 0 20.6686V49.8015C0 50.0292 0.090402 50.2468 0.251117 50.4075L20.0759 70.219C20.2367 70.3797 20.4543 70.4701 20.6786 70.4701H85.2792C85.5069 70.4701 85.7246 70.3797 85.8853 70.219L93.5159 62.5884H128.28L135.911 70.219C136.072 70.3797 136.289 70.4701 136.517 70.4701H201.114C201.342 70.4701 201.563 70.3797 201.724 70.219L221.545 50.4075C221.706 50.2468 221.796 50.0292 221.796 49.8015V20.6686C221.796 20.4409 221.706 20.2233 221.545 20.0626Z" fill="white"></path><path d="M221.545 20.0626L216.637 15.1541C216.479 14.9933 216.258 14.9029 216.031 14.9029H100.42C100.323 14.9029 100.259 14.8963 100.196 14.8829C100.175 14.8829 100.155 14.8728 100.135 14.8695C100.085 14.8594 100.021 14.8427 99.9177 14.7992C99.8808 14.7858 99.8474 14.769 99.767 14.7188L99.7603 14.7288C99.7302 14.702 99.7 14.6786 99.6665 14.6552C99.6096 14.6184 99.5594 14.5681 99.5125 14.5212L85.2424 0.251117C85.0817 0.090402 84.8641 0 84.6331 0H20.6786C20.4543 0 20.2367 0.090402 20.0759 0.251117L0.251117 20.0626C0.090402 20.2233 0 20.4409 0 20.6686V49.8015C0 50.0292 0.090402 50.2468 0.251117 50.4075L20.0759 70.219C20.2367 70.3797 20.4543 70.4701 20.6786 70.4701H85.2792C85.5069 70.4701 85.7246 70.3797 85.8853 70.219L93.5159 62.5884H128.28L135.911 70.219C136.072 70.3797 136.289 70.4701 136.517 70.4701H201.114C201.342 70.4701 201.563 70.3797 201.724 70.219L221.545 50.4075C221.706 50.2468 221.796 50.0292 221.796 49.8015V20.6686C221.796 20.4409 221.706 20.2233 221.545 20.0626Z" fill="url(#paint0_radial_111_5258)"></path><path d="M220.079 49.4466L220.503 49.871L220.679 49.6952V49.4466H220.079ZM200.759 68.7524V69.3524H201.008L201.184 69.1769L200.759 68.7524ZM136.872 68.7524L136.448 69.1766L136.623 69.3524H136.872V68.7524ZM129.245 61.1218L129.669 60.6977L129.669 60.6976L129.245 61.1218ZM92.5549 61.1218L92.9792 61.5461L92.9836 61.5416L92.5549 61.1218ZM84.9243 68.7524V69.3524H85.1728L85.3486 69.1767L84.9243 68.7524ZM21.0369 68.7524L20.6128 69.1769L20.7885 69.3524H21.0369V68.7524ZM1.7176 49.4466H1.1176V49.6952L1.29348 49.871L1.7176 49.4466ZM1.7176 21.0235L1.29348 20.5991L1.1176 20.7749V21.0235H1.7176ZM21.0369 1.71764V1.11764H20.7885L20.6128 1.29323L21.0369 1.71764ZM84.2815 1.71764L84.7057 1.29338L84.53 1.11764H84.2815V1.71764ZM98.2972 15.7333L98.7214 15.309L98.7214 15.309L98.2972 15.7333ZM98.7057 16.0782L99.0498 15.5865L99.0385 15.5789L98.7057 16.0782ZM98.806 16.1418L98.4973 16.6563L98.5839 16.7083L98.6828 16.729L98.806 16.1418ZM99.8608 16.567L99.9849 15.98L99.9602 15.9748L99.9352 15.9716L99.8608 16.567ZM215.676 16.6206L216.1 16.1963L215.924 16.0206H215.676V16.6206ZM220.079 21.0235H220.679V20.775L220.503 20.5992L220.079 21.0235ZM219.655 49.0222L200.335 68.328L201.184 69.1769L220.503 49.871L219.655 49.0222ZM200.759 68.1524H136.872V69.3524H200.759V68.1524ZM137.296 68.3283L129.669 60.6977L128.82 61.546L136.448 69.1766L137.296 68.3283ZM129.669 60.6976C129.395 60.4237 129.021 60.2707 128.639 60.2707V61.4707C128.705 61.4707 128.773 61.4986 128.821 61.5461L129.669 60.6976ZM128.639 60.2707H93.161V61.4707H128.639V60.2707ZM93.161 60.2707C92.7775 60.2707 92.4003 60.4222 92.1262 60.7021L92.9836 61.5416C93.0243 61.5001 93.0891 61.4707 93.161 61.4707V60.2707ZM92.1307 60.6976L84.5 68.3282L85.3486 69.1767L92.9792 61.5461L92.1307 60.6976ZM84.9243 68.1524H21.0369V69.3524H84.9243V68.1524ZM21.461 68.328L2.14172 49.0222L1.29348 49.871L20.6128 69.1769L21.461 68.328ZM2.3176 49.4466V21.0235H1.1176V49.4466H2.3176ZM2.14172 21.4479L21.461 2.14205L20.6128 1.29323L1.29348 20.5991L2.14172 21.4479ZM21.0369 2.31764H84.2815V1.11764H21.0369V2.31764ZM83.8572 2.14191L97.8729 16.1576L98.7214 15.309L84.7057 1.29338L83.8572 2.14191ZM97.8729 16.1576C98.0156 16.3003 98.1873 16.4537 98.3728 16.5774L99.0385 15.5789C98.9427 15.5151 98.8332 15.4208 98.7214 15.309L97.8729 16.1576ZM98.3616 16.5697C98.4148 16.607 98.4656 16.6373 98.4973 16.6563L99.1147 15.6273C99.0795 15.6062 99.0635 15.5963 99.0497 15.5866L98.3616 16.5697ZM98.806 16.1418C98.6828 16.729 98.6828 16.729 98.6828 16.729C98.6828 16.729 98.6828 16.729 98.6829 16.729C98.6829 16.729 98.683 16.7291 98.6831 16.7291C98.6833 16.7291 98.6836 16.7292 98.684 16.7293C98.6848 16.7294 98.686 16.7297 98.6876 16.73C98.6908 16.7307 98.6956 16.7317 98.7017 16.733C98.7141 16.7356 98.7323 16.7394 98.7554 16.7443C98.8016 16.754 98.8676 16.7678 98.9468 16.7845C99.1053 16.8178 99.3167 16.8622 99.5281 16.9068C99.7395 16.9513 99.9508 16.9959 100.109 17.0295C100.189 17.0464 100.254 17.0604 100.3 17.0702C100.323 17.0752 100.34 17.0788 100.351 17.0812C100.356 17.0825 100.359 17.083 100.358 17.083C100.358 17.0829 100.358 17.0827 100.356 17.0825C100.355 17.0822 100.353 17.0816 100.35 17.0808C100.348 17.0803 100.339 17.0781 100.328 17.0748C100.324 17.0735 100.31 17.0693 100.292 17.0628C100.282 17.0591 100.257 17.0488 100.242 17.0419C100.215 17.028 100.129 16.9719 100.076 16.9243L100.924 16.0757C100.871 16.0281 100.785 15.9719 100.758 15.9581C100.742 15.9511 100.717 15.9408 100.708 15.9371C100.69 15.9305 100.676 15.9263 100.671 15.9249C100.66 15.9214 100.65 15.9191 100.648 15.9184C100.64 15.9165 100.634 15.915 100.631 15.9144C100.625 15.9128 100.617 15.9111 100.61 15.9096C100.596 15.9064 100.576 15.9022 100.553 15.8971C100.505 15.8869 100.438 15.8726 100.358 15.8557C100.199 15.8219 99.987 15.7771 99.7754 15.7325C99.5638 15.6879 99.3522 15.6435 99.1936 15.6101C99.1143 15.5935 99.0482 15.5796 99.002 15.5699C98.9789 15.565 98.9607 15.5612 98.9483 15.5586C98.9421 15.5573 98.9373 15.5563 98.9341 15.5556C98.9325 15.5553 98.9313 15.555 98.9305 15.5549C98.9301 15.5548 98.9298 15.5547 98.9296 15.5547C98.9295 15.5547 98.9294 15.5546 98.9294 15.5546C98.9293 15.5546 98.9293 15.5546 98.9293 15.5546C98.9293 15.5546 98.9293 15.5546 98.806 16.1418ZM99.6223 17.1306C99.6945 17.1512 99.7588 17.1589 99.7864 17.1624L99.9352 15.9716C99.9297 15.9709 99.9266 15.9705 99.9245 15.9702C99.9226 15.97 99.9227 15.97 99.9243 15.9702C99.9277 15.9708 99.9379 15.9727 99.9519 15.9767L99.6223 17.1306ZM99.7366 17.154C99.958 17.2009 100.174 17.2206 100.42 17.2206V16.0206C100.243 16.0206 100.112 16.0068 99.9849 15.98L99.7366 17.154ZM100.42 17.2206H215.676V16.0206H100.42V17.2206ZM215.252 17.0449L219.654 21.4478L220.503 20.5992L216.1 16.1963L215.252 17.0449ZM219.479 21.0235V49.4466H220.679V21.0235H219.479ZM221.545 20.0626L220.697 20.9111L220.697 20.9111L221.545 20.0626ZM216.637 15.1541L215.779 15.9937L215.788 16.0026L216.637 15.1541ZM100.196 14.8829L100.443 13.7086L100.321 13.6829H100.196V14.8829ZM100.135 14.8695L99.9 16.0462L99.919 16.05L99.9381 16.0531L100.135 14.8695ZM99.9177 14.7992L100.382 13.6925L100.355 13.6813L100.328 13.6714L99.9177 14.7992ZM99.767 14.7188L100.403 13.7012L99.4165 13.0846L98.7696 14.0516L99.767 14.7188ZM99.7603 14.7288L98.9631 15.6257L99.9922 16.5405L100.758 15.396L99.7603 14.7288ZM99.6665 14.6552L100.355 13.6721L100.337 13.6596L100.318 13.6477L99.6665 14.6552ZM99.5125 14.5212L100.361 13.6727L100.361 13.6727L99.5125 14.5212ZM85.2424 0.251117L84.3938 1.09964L84.3938 1.09965L85.2424 0.251117ZM20.0759 0.251117L20.9242 1.09993L20.9245 1.09964L20.0759 0.251117ZM0.251117 20.0626L-0.597125 19.2138L-0.597411 19.214L0.251117 20.0626ZM0.251117 50.4075L-0.597411 51.256L-0.597125 51.2563L0.251117 50.4075ZM20.0759 70.219L20.9245 69.3705L20.9242 69.3702L20.0759 70.219ZM85.8853 70.219L86.7338 71.0675L86.7338 71.0675L85.8853 70.219ZM93.5159 62.5884V61.3884H93.0188L92.6674 61.7398L93.5159 62.5884ZM128.28 62.5884L129.129 61.7398L128.778 61.3884H128.28V62.5884ZM135.911 70.219L135.063 71.0675L135.063 71.0675L135.911 70.219ZM201.724 70.219L200.875 69.3702L200.875 69.3705L201.724 70.219ZM221.545 50.4075L222.394 51.2563L222.394 51.256L221.545 50.4075ZM222.394 19.214L217.485 14.3055L215.788 16.0026L220.697 20.9111L222.394 19.214ZM217.494 14.3145C217.103 13.9154 216.57 13.7029 216.031 13.7029V16.1029C215.947 16.1029 215.855 16.0712 215.779 15.9936L217.494 14.3145ZM216.031 13.7029H100.42V16.1029H216.031V13.7029ZM100.42 13.7029C100.398 13.7029 100.397 13.7022 100.406 13.7031C100.411 13.7035 100.418 13.7043 100.425 13.7054C100.432 13.7066 100.439 13.7077 100.443 13.7086L99.9484 16.0571C100.11 16.0911 100.259 16.1029 100.42 16.1029V13.7029ZM100.196 13.6829C100.29 13.6829 100.365 13.6946 100.414 13.7042C100.461 13.7135 100.495 13.7237 100.502 13.7256C100.505 13.7264 100.509 13.7277 100.503 13.7258C100.499 13.7247 100.489 13.7215 100.476 13.7179C100.451 13.711 100.399 13.6969 100.333 13.6858L99.9381 16.0531C99.8818 16.0438 99.8397 16.0322 99.8251 16.028C99.8173 16.0258 99.8117 16.0241 99.8132 16.0246C99.8134 16.0247 99.8137 16.0247 99.8145 16.025C99.8152 16.0252 99.8163 16.0255 99.8176 16.0259C99.8201 16.0267 99.8241 16.0279 99.8289 16.0293C99.8455 16.0341 99.8902 16.0471 99.9472 16.0583C100.006 16.0699 100.092 16.0829 100.196 16.0829V13.6829ZM100.371 13.6928C100.374 13.6934 100.379 13.6945 100.386 13.6962C100.392 13.6978 100.398 13.6993 100.401 13.7005C100.409 13.7027 100.403 13.7016 100.382 13.6925L99.4536 15.9058C99.627 15.9785 99.7671 16.0196 99.9 16.0462L100.371 13.6928ZM100.328 13.6714C100.34 13.676 100.357 13.6824 100.376 13.6907C100.394 13.6988 100.409 13.7062 100.418 13.7113C100.427 13.7161 100.431 13.7185 100.428 13.7166C100.425 13.7147 100.417 13.7101 100.403 13.7012L99.131 15.7364C99.2331 15.8002 99.3512 15.8701 99.5076 15.9269L100.328 13.6714ZM98.7696 14.0516L98.7629 14.0616L100.758 15.396L100.764 15.386L98.7696 14.0516ZM100.558 13.8319C100.488 13.7701 100.421 13.7182 100.355 13.6721L98.9784 15.6383C98.9797 15.6392 98.9781 15.6381 98.9746 15.6354C98.971 15.6325 98.967 15.6292 98.9631 15.6257L100.558 13.8319ZM100.318 13.6477C100.341 13.6622 100.358 13.6749 100.369 13.6837C100.38 13.6925 100.387 13.6988 100.389 13.7009C100.392 13.7029 100.391 13.7023 100.386 13.6973C100.38 13.6918 100.374 13.6853 100.361 13.6727L98.664 15.3698C98.6936 15.3993 98.8324 15.5448 99.0146 15.6627L100.318 13.6477ZM100.361 13.6727L86.0909 -0.597413L84.3938 1.09965L98.664 15.3698L100.361 13.6727ZM86.0909 -0.597411C85.7039 -0.984418 85.1806 -1.2 84.6331 -1.2V1.2C84.5476 1.2 84.4594 1.16522 84.3938 1.09964L86.0909 -0.597411ZM84.6331 -1.2H20.6786V1.2H84.6331V-1.2ZM20.6786 -1.2C20.133 -1.2 19.611 -0.980976 19.2274 -0.597411L20.9245 1.09964C20.8623 1.16178 20.7757 1.2 20.6786 1.2V-1.2ZM19.2277 -0.597697L-0.597125 19.2138L1.09936 20.9114L20.9242 1.09993L19.2277 -0.597697ZM-0.597411 19.214C-0.982707 19.5993 -1.2 20.122 -1.2 20.6686H1.2C1.2 20.7598 1.16351 20.8472 1.09964 20.9111L-0.597411 19.214ZM-1.2 20.6686V49.8015H1.2V20.6686H-1.2ZM-1.2 49.8015C-1.2 50.348 -0.982747 50.8707 -0.597411 51.256L1.09964 49.559C1.16355 49.6229 1.2 49.7103 1.2 49.8015H-1.2ZM-0.597125 51.2563L19.2277 71.0678L20.9242 69.3702L1.09936 49.5587L-0.597125 51.2563ZM19.2274 71.0675C19.611 71.4511 20.133 71.6701 20.6786 71.6701V69.2701C20.7756 69.2701 20.8623 69.3083 20.9245 69.3705L19.2274 71.0675ZM20.6786 71.6701H85.2792V69.2701H20.6786V71.6701ZM85.2792 71.6701C85.8258 71.6701 86.3485 71.4529 86.7338 71.0675L85.0368 69.3705C85.1007 69.3065 85.1881 69.2701 85.2792 69.2701V71.6701ZM86.7338 71.0675L94.3644 63.4369L92.6674 61.7398L85.0368 69.3705L86.7338 71.0675ZM93.5159 63.7884H128.28V61.3884H93.5159V63.7884ZM127.432 63.4369L135.063 71.0675L136.76 69.3705L129.129 61.7398L127.432 63.4369ZM135.063 71.0675C135.448 71.4529 135.971 71.6701 136.517 71.6701V69.2701C136.608 69.2701 136.696 69.3065 136.76 69.3705L135.063 71.0675ZM136.517 71.6701H201.114V69.2701H136.517V71.6701ZM201.114 71.6701C201.656 71.6701 202.183 71.4564 202.572 71.0675L200.875 69.3705C200.943 69.303 201.028 69.2701 201.114 69.2701V71.6701ZM202.572 71.0677L222.394 51.2563L220.697 49.5588L200.875 69.3702L202.572 71.0677ZM222.394 51.256C222.779 50.8707 222.996 50.3481 222.996 49.8015H220.596C220.596 49.7103 220.633 49.6229 220.697 49.559L222.394 51.256ZM222.996 49.8015V20.6686H220.596V49.8015H222.996ZM222.996 20.6686C222.996 20.1219 222.779 19.5993 222.394 19.214L220.697 20.9111C220.633 20.8473 220.596 20.7599 220.596 20.6686H222.996Z" fill="url(#paint1_linear_111_5258)" mask="url(#path-3-inside-1_111_5258)"></path></g><path d="M133.095 69.6129H88.6944L94.1487 64.1587H127.641L133.095 69.6129Z" fill="#5ECAB6"></path><defs><radialGradient id="paint0_radial_111_5258" cx="0" cy="0" r="1" gradientUnits="userSpaceOnUse" gradientTransform="translate(110.898 35.235) rotate(90) scale(35.235 110.898)"><stop stop-color="#04080F"></stop><stop offset="1" stop-color="#0A1614"></stop></radialGradient><linearGradient id="paint1_linear_111_5258" x1="110.898" y1="0" x2="110.898" y2="70.4701" gradientUnits="userSpaceOnUse"><stop stop-color="#41AC98" stop-opacity="0.62"></stop><stop offset="1" stop-color="#70E9D2"></stop></linearGradient></defs></svg>