<svg xmlns="http://www.w3.org/2000/svg" width="51" height="51" viewBox="0 0 51 51" fill="none"><path d="M20 50.8L25.8 45H47.8C49.1 45 50.1 44 50.1 42.7V23.3C50.1 22 49.1 21 47.8 21H22.3C21 21 20 22 20 23.3V50.8Z" fill="white"></path><path d="M20 50.8L25.8 45H47.8C49.1 45 50.1 44 50.1 42.7V23.3C50.1 22 49.1 21 47.8 21H22.3C21 21 20 22 20 23.3V50.8Z" fill="#98CFE8"></path><g filter="url(#filter0_i_123_13)"><path d="M30 29.8L24.2 24H2.2C1 24 0 23 0 21.7V2.3C0 1 1 0 2.3 0H27.8C29 0 30 1 30 2.3V29.8Z" fill="url(#paint0_linear_123_13)"></path></g><path d="M31.2 39.6999L35 27.3999L38.9 39.6999" stroke="white" stroke-width="2" stroke-miterlimit="10"></path><path d="M37 36H32" stroke="white" stroke-width="2" stroke-miterlimit="10"></path><path d="M41 39H29V43H41V39Z" fill="#98CFE8"></path><path d="M38 23H30V27H38V23Z" fill="#98CFE8"></path><path d="M16 17H14C12.9 17 12 16.1 12 15V9C12 7.9 12.9 7 14 7H16C17.1 7 18 7.9 18 9V15C18 16.1 17.1 17 16 17Z" stroke="white" stroke-width="2" stroke-miterlimit="10"></path><path d="M15 14L19.5 18.5" stroke="white" stroke-width="2" stroke-miterlimit="10"></path><defs><filter id="filter0_i_123_13" x="0" y="0" width="30" height="33.7998" filterUnits="userSpaceOnUse" color-interpolation-filters="sRGB"><feFlood flood-opacity="0" result="BackgroundImageFix"></feFlood><feBlend mode="normal" in="SourceGraphic" in2="BackgroundImageFix" result="shape"></feBlend><feColorMatrix in="SourceAlpha" type="matrix" values="0 0 0 0 0 0 0 0 0 0 0 0 0 0 0 0 0 0 127 0" result="hardAlpha"></feColorMatrix><feOffset dy="4"></feOffset><feGaussianBlur stdDeviation="5"></feGaussianBlur><feComposite in2="hardAlpha" operator="arithmetic" k2="-1" k3="1"></feComposite><feColorMatrix type="matrix" values="0 0 0 0 0.0313726 0 0 0 0 0.117647 0 0 0 0 0.290196 0 0 0 1 0"></feColorMatrix><feBlend mode="normal" in2="shape" result="effect1_innerShadow_123_13"></feBlend></filter><linearGradient id="paint0_linear_123_13" x1="30.8748" y1="20.987" x2="13.048" y2="0.206348" gradientUnits="userSpaceOnUse"><stop stop-color="#2EA4DA"></stop><stop offset="1" stop-color="#46A9D5"></stop></linearGradient></defs></svg>