<svg xmlns="http://www.w3.org/2000/svg" width="40" height="44" viewBox="0 0 40 44" fill="none"><g filter="url(#filter0_i_465_2)"><path d="M37.1683 7.9107L12.5502 1.3143C11.2353 0.961946 9.88342 1.74243 9.53107 3.05742L1.50533 33.0099C1.15298 34.3249 1.93346 35.6767 3.24845 36.0291L27.8666 42.6255C29.1815 42.9778 30.5334 42.1973 30.8857 40.8823L38.9115 10.9299C39.2638 9.61488 38.4833 8.26305 37.1683 7.9107Z" fill="url(#paint0_linear_465_2)"></path></g><path d="M33.6845 15.9051L18.6857 11.8862C18.3571 11.7982 18.1618 11.46 18.2499 11.1314C18.3379 10.8028 18.6761 10.6076 19.0047 10.6956L34.0035 14.7146C34.3321 14.8026 34.5273 15.1408 34.4393 15.4694C34.3513 15.798 34.0131 15.9932 33.6845 15.9051Z" fill="white"></path><path d="M31.9655 22.3207L16.9666 18.3017C16.638 18.2137 16.4428 17.8755 16.5308 17.5469C16.6189 17.2183 16.957 17.0231 17.2856 17.1112L32.2845 21.1301C32.6131 21.2181 32.8083 21.5563 32.7203 21.8849C32.6322 22.2135 32.2941 22.4087 31.9655 22.3207Z" fill="white"></path><path d="M30.2464 28.7362L15.2476 24.7173C14.919 24.6292 14.7236 24.2917 14.8118 23.9625C14.9 23.6333 15.238 23.4386 15.5666 23.5267L30.5654 27.5456C30.894 27.6337 31.0894 27.9712 31.0012 28.3004C30.913 28.6296 30.575 28.8242 30.2464 28.7362Z" fill="white"></path><path d="M28.5276 35.1512L13.5287 31.1323C13.2001 31.0443 13.0048 30.7067 13.093 30.3775C13.1812 30.0483 13.5192 29.8537 13.8478 29.9417L28.8466 33.9607C29.1752 34.0487 29.3706 34.3863 29.2824 34.7155C29.1942 35.0447 28.8562 35.2393 28.5276 35.1512Z" fill="white"></path><g filter="url(#filter1_i_465_2)"><path d="M28.9517 4H3.46515C2.10377 4 1 5.10377 1 6.46515V37.4742C1 38.8356 2.10377 39.9394 3.46515 39.9394H28.9517C30.3131 39.9394 31.4168 38.8356 31.4168 37.4742V6.46515C31.4168 5.10377 30.3131 4 28.9517 4Z" fill="url(#paint1_linear_465_2)"></path></g><path d="M27.3795 12.6237H4.89248C4.39983 12.6237 4 12.3476 4 12.0074C4 11.6672 4.39983 11.3911 4.89248 11.3911H27.3795C27.8721 11.3911 28.2719 11.6672 28.2719 12.0074C28.2719 12.3476 27.8721 12.6237 27.3795 12.6237Z" fill="white"></path><path d="M27.3795 19.2653H4.89248C4.39983 19.2653 4 18.9892 4 18.649C4 18.3088 4.39983 18.0327 4.89248 18.0327H27.3795C27.8721 18.0327 28.2719 18.3088 28.2719 18.649C28.2719 18.9892 27.8721 19.2653 27.3795 19.2653Z" fill="white"></path><path d="M27.3795 25.9074H4.89248C4.39983 25.9074 4 25.6319 4 25.2911C4 24.9503 4.39983 24.6748 4.89248 24.6748H27.3795C27.8721 24.6748 28.2719 24.9503 28.2719 25.2911C28.2719 25.6319 27.8721 25.9074 27.3795 25.9074Z" fill="white"></path><path d="M27.3795 32.5485H4.89248C4.39983 32.5485 4 32.273 4 31.9322C4 31.5914 4.39983 31.3159 4.89248 31.3159H27.3795C27.8721 31.3159 28.2719 31.5914 28.2719 31.9322C28.2719 32.273 27.8721 32.5485 27.3795 32.5485Z" fill="white"></path><defs><filter id="filter0_i_465_2" x="1.42075" y="1.22949" width="37.5753" height="45.4805" filterUnits="userSpaceOnUse" color-interpolation-filters="sRGB"><feFlood flood-opacity="0" result="BackgroundImageFix"></feFlood><feBlend mode="normal" in="SourceGraphic" in2="BackgroundImageFix" result="shape"></feBlend><feColorMatrix in="SourceAlpha" type="matrix" values="0 0 0 0 0 0 0 0 0 0 0 0 0 0 0 0 0 0 127 0" result="hardAlpha"></feColorMatrix><feOffset dy="4"></feOffset><feGaussianBlur stdDeviation="5"></feGaussianBlur><feComposite in2="hardAlpha" operator="arithmetic" k2="-1" k3="1"></feComposite><feColorMatrix type="matrix" values="0 0 0 0 0.0313726 0 0 0 0 0.117647 0 0 0 0 0.290196 0 0 0 1 0"></feColorMatrix><feBlend mode="normal" in2="shape" result="effect1_innerShadow_465_2"></feBlend></filter><filter id="filter1_i_465_2" x="1" y="4" width="30.4168" height="39.9395" filterUnits="userSpaceOnUse" color-interpolation-filters="sRGB"><feFlood flood-opacity="0" result="BackgroundImageFix"></feFlood><feBlend mode="normal" in="SourceGraphic" in2="BackgroundImageFix" result="shape"></feBlend><feColorMatrix in="SourceAlpha" type="matrix" values="0 0 0 0 0 0 0 0 0 0 0 0 0 0 0 0 0 0 127 0" result="hardAlpha"></feColorMatrix><feOffset dy="4"></feOffset><feGaussianBlur stdDeviation="5"></feGaussianBlur><feComposite in2="hardAlpha" operator="arithmetic" k2="-1" k3="1"></feComposite><feColorMatrix type="matrix" values="0 0 0 0 0.0313726 0 0 0 0 0.117647 0 0 0 0 0.290196 0 0 0 1 0"></feColorMatrix><feBlend mode="normal" in2="shape" result="effect1_innerShadow_465_2"></feBlend></filter><linearGradient id="paint0_linear_465_2" x1="33.8553" y1="33.2266" x2="18.3645" y2="7.0108" gradientUnits="userSpaceOnUse"><stop stop-color="#2EA4DA"></stop><stop offset="1" stop-color="#46A9D5"></stop></linearGradient><linearGradient id="paint1_linear_465_2" x1="32.3038" y1="29.3108" x2="10.5556" y2="7.99757" gradientUnits="userSpaceOnUse"><stop stop-color="#2EA4DA"></stop><stop offset="1" stop-color="#46A9D5"></stop></linearGradient></defs></svg>