<svg xmlns="http://www.w3.org/2000/svg" width="41" height="40" viewBox="0 0 41 40" fill="none"><g filter="url(#filter0_i_331_393)"><path d="M35.6253 0.790527H6.27761C3.29166 0.790527 0.902893 3.17929 0.902893 6.16525V27.5788C0.902893 30.5648 3.29166 32.9535 6.27761 32.9535H8.92231V39.6933L16.5152 32.9535H35.6253C38.6112 32.9535 41 30.5648 41 27.5788V6.16525C41 3.17929 38.6112 0.790527 35.6253 0.790527Z" fill="url(#paint0_linear_331_393)"></path></g><path d="M29.568 23.9107H21.4633V17.5975C21.4633 15.2941 21.9752 13.5025 22.9136 12.1375C23.8521 10.7725 25.5583 9.57809 27.8618 8.63965L29.6534 11.9669C28.203 12.6494 27.1793 13.3319 26.6674 14.0144C26.1555 14.6969 25.8143 15.4647 25.729 16.4031H29.6534V23.9107H29.568ZM18.7333 23.9107H10.6286V17.5975C10.6286 15.2941 11.1404 13.5025 12.0789 12.1375C13.0173 10.7725 14.7236 9.57809 17.027 8.63965L18.8186 11.9669C17.3683 12.6494 16.3445 13.3319 15.8326 14.0144C15.3208 14.6969 14.9795 15.4647 14.8942 16.4031H18.8186V23.9107H18.7333Z" fill="white"></path><defs><filter id="filter0_i_331_393" x="0.902893" y="0.790527" width="40.0971" height="44.5511" filterUnits="userSpaceOnUse" color-interpolation-filters="sRGB"><feFlood flood-opacity="0" result="BackgroundImageFix"></feFlood><feBlend mode="normal" in="SourceGraphic" in2="BackgroundImageFix" result="shape"></feBlend><feColorMatrix in="SourceAlpha" type="matrix" values="0 0 0 0 0 0 0 0 0 0 0 0 0 0 0 0 0 0 127 0" result="hardAlpha"></feColorMatrix><feOffset dy="5.64831"></feOffset><feGaussianBlur stdDeviation="7.06039"></feGaussianBlur><feComposite in2="hardAlpha" operator="arithmetic" k2="-1" k3="1"></feComposite><feColorMatrix type="matrix" values="0 0 0 0 0.0313726 0 0 0 0 0.117647 0 0 0 0 0.290196 0 0 0 1 0"></feColorMatrix><feBlend mode="normal" in2="shape" result="effect1_innerShadow_331_393"></feBlend></filter><linearGradient id="paint0_linear_331_393" x1="42.1693" y1="28.1883" x2="18.9866" y2="0.520242" gradientUnits="userSpaceOnUse"><stop stop-color="#2EA4DA"></stop><stop offset="1" stop-color="#46A9D5"></stop></linearGradient></defs></svg>