<svg xmlns="http://www.w3.org/2000/svg" width="37" height="46" viewBox="0 0 37 46" fill="none"><path d="M16.3893 43.5237V30.1748H21.2321V43.5237C21.2321 44.8151 20.1829 45.9451 18.8107 45.9451C17.4386 45.9451 16.3893 44.8958 16.3893 43.5237Z" fill="white"></path><g filter="url(#filter0_i_331_387)"><path d="M18.8107 35.7625C28.6863 35.7625 36.692 27.7568 36.692 17.8813C36.692 8.00571 28.6863 0 18.8107 0C8.93516 0 0.929443 8.00571 0.929443 17.8813C0.929443 27.7568 8.93516 35.7625 18.8107 35.7625Z" fill="url(#paint0_linear_331_387)"></path></g><path d="M28.0928 18.4459L24.1378 22.4009C21.1514 25.3873 16.3893 25.3873 13.4029 22.4009L9.44789 18.4459C9.12504 18.123 9.12504 17.6388 9.44789 17.3159L13.4029 13.3609C16.3893 10.3745 21.1514 10.3745 24.1378 13.3609L28.0928 17.3159C28.4157 17.6388 28.4157 18.123 28.0928 18.4459Z" fill="white"></path><path d="M19.7793 17.0739C19.2143 16.3474 19.295 15.3789 19.7793 14.6524C19.9407 14.491 19.7793 14.1681 19.5372 14.1681C18.165 13.8453 16.6315 14.3296 15.6629 15.621C14.6136 16.9931 14.6943 18.9303 15.7436 20.3024C17.1965 22.1588 19.86 22.2396 21.4743 20.6253C22.12 19.9796 22.5236 19.0917 22.6043 18.2038C22.6043 17.9617 22.3621 17.8003 22.2007 17.881C21.3129 18.1231 20.3443 17.8003 19.7793 17.0739Z" fill="#98CFE8"></path><defs><filter id="filter0_i_331_387" x="0.929443" y="0" width="35.7625" height="42.0244" filterUnits="userSpaceOnUse" color-interpolation-filters="sRGB"><feFlood flood-opacity="0" result="BackgroundImageFix"></feFlood><feBlend mode="normal" in="SourceGraphic" in2="BackgroundImageFix" result="shape"></feBlend><feColorMatrix in="SourceAlpha" type="matrix" values="0 0 0 0 0 0 0 0 0 0 0 0 0 0 0 0 0 0 127 0" result="hardAlpha"></feColorMatrix><feOffset dy="6.26172"></feOffset><feGaussianBlur stdDeviation="7.82715"></feGaussianBlur><feComposite in2="hardAlpha" operator="arithmetic" k2="-1" k3="1"></feComposite><feColorMatrix type="matrix" values="0 0 0 0 0.0313726 0 0 0 0 0.117647 0 0 0 0 0.290196 0 0 0 1 0"></feColorMatrix><feBlend mode="normal" in2="shape" result="effect1_innerShadow_331_387"></feBlend></filter><linearGradient id="paint0_linear_331_387" x1="37.7348" y1="25.1862" x2="16.3199" y2="0.389214" gradientUnits="userSpaceOnUse"><stop stop-color="#2EA4DA"></stop><stop offset="1" stop-color="#46A9D5"></stop></linearGradient></defs></svg>